<?xml version="1.0" encoding="UTF-8" standalone="no"?>
<svg width="137px" height="74px" viewBox="0 0 137 74" version="1.1" xmlns="http://www.w3.org/2000/svg" xmlns:xlink="http://www.w3.org/1999/xlink">
    <!-- Generator: Sketch 39.1 (31720) - http://www.bohemiancoding.com/sketch -->
    <title>logo3</title>
    <desc>Created with Sketch.</desc>
    <defs></defs>
    <g id="Page-1" stroke="none" stroke-width="1" fill="none" fill-rule="evenodd">
        <g id="logo3">
            <polygon id="N" fill="#4896ED" points="135.857788 57.8474116 135.857788 1.94413318 124.019904 1.94413318 124.019904 37.0617849 98.26 1.94413318 86.0886538 1.94413318 86.0886538 57.8474116 97.9265385 57.8474116 97.9265385 21.3887518 124.436731 57.8474116"></polygon>
            <path d="M68.2925962,57.8474116 C85.7159615,57.8474116 97.8039423,46.7840942 97.8039423,29.9376789 C97.8039423,13.0912637 85.7159615,1.94413318 68.2925962,1.94413318 L46.3675,1.94413318 L46.3675,57.8474116 L68.2925962,57.8474116 Z M68.2925962,47.3707852 L58.2053846,47.3707852 L58.2053846,12.4207596 L68.2925962,12.4207596 C79.7136538,12.4207596 85.7159615,20.0477436 85.7159615,29.9376789 C85.7159615,39.4085492 79.2968269,47.3707852 68.2925962,47.3707852 L68.2925962,47.3707852 Z" id="D" fill="#4896ED"></path>
            <path d="M29.0667308,57.8671324 C45.9065385,57.8671324 58.16125,45.7980587 58.16125,28.9516435 C58.16125,12.1052282 45.9065385,0.0361546323 29.0667308,0.0361546323 C12.3102885,0.0361546323 0.0555769231,12.1052282 0.0555769231,28.9516435 C0.0555769231,45.7980587 12.3102885,57.8671324 29.0667308,57.8671324 L29.0667308,57.8671324 Z M29.0667308,47.3066929 C18.8127885,47.3066929 12.2269231,39.3444569 12.2269231,28.9516435 C12.2269231,18.4750171 18.8127885,10.596594 29.0667308,10.596594 C39.3206731,10.596594 45.9899038,18.4750171 45.9899038,28.9516435 C45.9899038,39.3444569 39.3206731,47.3066929 29.0667308,47.3066929 L29.0667308,47.3066929 Z" id="O" fill="#4896ED"></path>
            <path d="M87.4385188,7.78897046 C86.5496963,7.11853661 86.0910339,6.86981947 86.0910339,6.86981947 L86.0903655,11.1606845 C86.0903655,11.1606845 95.0031234,18.5691379 95.4625979,30.9590063 C95.6252644,35.3453574 95.0398431,40.333409 92.19211,45.8695497 C91.3831889,47.4421343 90.0851171,49.1216804 88.9541749,50.7753478 C88.9541749,50.7753478 93.4753418,47.0473265 95.8785804,40.9398265 C97.4786216,36.8735421 97.6722904,32.6545778 97.7572283,28.5620622 C97.8829041,22.5066908 95.3006961,16.9423509 92.7927606,13.313742 C91.0321068,10.7663384 89.2140926,9.22706433 88.8001145,8.90859564 C88.1958644,8.44375287 87.8230892,8.0790498 87.4385188,7.78897046 Z" id="Path-62" fill="#3167A4"></path>
            <path d="M46.378999,9.60754623 C46.378999,9.60754623 54.0587641,14.7797754 55.6191134,28.2944576 C57.1794627,41.8091398 49.0382202,50.5686755 49.0382202,50.5686755 C49.0382202,50.5686755 50.6851521,49.2848225 52.62063,46.6299603 C53.8276391,44.9743262 55.1973344,42.7919876 56.1950298,40.0354171 C56.4625479,39.2962811 56.9637206,37.9579338 57.3799838,36.0887653 C57.6583218,34.8389291 57.8942156,33.2588093 58.0357655,31.7294047 C58.3650983,28.1710605 57.859666,24.0312641 57.4853798,22.2209833 C56.2129362,16.0666562 53.0518002,11.4554506 50.3563926,8.61995638 C48.1956625,6.34692801 46.3794736,5.23032716 46.378999,5.22863379 C46.3775714,5.22354022 46.378999,9.60754623 46.378999,9.60754623 Z" id="Path-61" fill="#3167A4"></path>
            <path d="M46.4017812,9.62219789 C46.4017812,9.62219789 54.0602473,14.6820144 55.6412318,28.2327727 C55.6864081,28.6199822 55.7059977,29.0138102 55.7409634,29.4149663 C56.6681845,40.052831 52.2747921,47.1119268 49.0853762,50.5040517 C47.945434,51.716445 46.8973908,52.3825873 46.3683556,52.6846686 L46.4017812,10.5544878 L46.4017812,9.62219789 Z" id="Path-62" fill="#3B79BE"></path>
            <path d="M86.1371631,11.2077168 C86.1371631,11.2077168 94.703135,17.7730108 95.4621807,30.7055758 C96.05934,40.8799312 92.2956804,47.4229099 88.8521212,50.8770562 C87.918592,51.8134556 86.8758512,52.4414969 86.0926103,52.9514178 L86.1757784,17.9448095 L86.1371631,11.2077168 Z" id="Path-63" fill="#3B79BE"></path>
            <polygon id="w" fill="#EA544C" points="130.708 70.762 132.766 64 130.918 64 129.658 68.55 128.174 64 126.592 64 125.108 68.55 123.848 64 122 64 124.058 70.762 125.962 70.762 127.39 66.156 128.818 70.762"></polygon>
            <path d="M135.904,67.3 L136.184,61 L134.042,61 L134.336,67.3 L135.904,67.3 Z M135.12,70.478 C135.736,70.478 136.254,69.96 136.254,69.358 C136.254,68.742 135.736,68.224 135.12,68.224 C134.504,68.224 134,68.742 134,69.358 C134,69.96 134.504,70.478 135.12,70.478 L135.12,70.478 Z" id="!" fill="#EA544C"></path>
            <polygon id="N" fill="#EA544C" points="115.358 70.838 115.358 61.5 113.37 61.5 113.37 67.366 109.044 61.5 107 61.5 107 70.838 108.988 70.838 108.988 64.748 113.44 70.838"></polygon>
            <path d="M118.982,71.098 C121.222,71.098 122.566,69.474 122.566,67.542 C122.566,65.624 121.222,64 118.982,64 C116.756,64 115.412,65.624 115.412,67.542 C115.412,69.474 116.756,71.098 118.982,71.098 L118.982,71.098 Z M118.982,69.516 C117.876,69.516 117.26,68.606 117.26,67.542 C117.26,66.492 117.876,65.582 118.982,65.582 C120.088,65.582 120.718,66.492 120.718,67.542 C120.718,68.606 120.088,69.516 118.982,69.516 L118.982,69.516 Z" id="o" fill="#EA544C"></path>
            <path d="M95.728,73.408 C95.952,73.464 96.4,73.506 96.61,73.506 C97.772,73.478 98.668,73.142 99.172,71.868 L102.35,64 L100.432,64 L98.668,68.704 L96.904,64 L95,64 L97.744,70.86 L97.492,71.434 C97.324,71.798 97.016,71.924 96.554,71.924 C96.386,71.924 96.148,71.882 95.994,71.812 L95.728,73.408 Z" id="y" fill="#EA544C"></path>
            <path d="M89.272,70.93 L89.272,66.562 C89.272,64.616 87.858,64 86.318,64 C85.254,64 84.19,64.336 83.364,65.064 L84.036,66.254 C84.61,65.722 85.282,65.456 86.01,65.456 C86.906,65.456 87.494,65.904 87.494,66.59 L87.494,67.5 C87.046,66.968 86.248,66.674 85.352,66.674 C84.274,66.674 83,67.276 83,68.858 C83,70.37 84.274,71.098 85.352,71.098 C86.234,71.098 87.032,70.776 87.494,70.23 L87.494,70.93 L89.272,70.93 Z M86.066,69.894 C85.366,69.894 84.792,69.53 84.792,68.9 C84.792,68.242 85.366,67.878 86.066,67.878 C86.64,67.878 87.2,68.074 87.494,68.466 L87.494,69.306 C87.2,69.698 86.64,69.894 86.066,69.894 L86.066,69.894 Z" id="a" fill="#EA544C"></path>
            <path d="M92.584,71.098 C93.97,71.098 94.81,70.496 95.258,69.866 L94.096,68.788 C93.774,69.236 93.284,69.516 92.668,69.516 C91.59,69.516 90.834,68.718 90.834,67.542 C90.834,66.366 91.59,65.582 92.668,65.582 C93.284,65.582 93.774,65.834 94.096,66.31 L95.258,65.218 C94.81,64.602 93.97,64 92.584,64 C90.498,64 89,65.47 89,67.542 C89,69.628 90.498,71.098 92.584,71.098 L92.584,71.098 Z" id="c" fill="#EA544C"></path>
            <path d="M81.778,70.93 L81.778,66.464 C82.072,66.03 82.856,65.694 83.444,65.694 C83.64,65.694 83.808,65.708 83.934,65.736 L83.934,64 C83.094,64 82.254,64.49 81.778,65.092 L81.778,64.168 L80,64.168 L80,70.93 L81.778,70.93 Z" id="r" fill="#EA544C"></path>
            <path d="M76.584,71.098 C77.97,71.098 78.81,70.496 79.258,69.866 L78.096,68.788 C77.774,69.236 77.284,69.516 76.668,69.516 C75.59,69.516 74.834,68.718 74.834,67.542 C74.834,66.366 75.59,65.582 76.668,65.582 C77.284,65.582 77.774,65.834 78.096,66.31 L79.258,65.218 C78.81,64.602 77.97,64 76.584,64 C74.498,64 73,65.47 73,67.542 C73,69.628 74.498,71.098 76.584,71.098 L76.584,71.098 Z" id="c" fill="#EA544C"></path>
            <path d="M52.612,71.098 C53.662,71.098 54.726,70.776 55.398,70.16 L54.614,69.012 C54.18,69.432 53.382,69.684 52.808,69.684 C51.66,69.684 50.974,68.97 50.862,68.116 L55.888,68.116 L55.888,67.724 C55.888,65.512 54.516,64 52.5,64 C50.442,64 49,65.582 49,67.542 C49,69.712 50.554,71.098 52.612,71.098 L52.612,71.098 Z M54.166,66.912 L50.834,66.912 C50.918,66.24 51.394,65.414 52.5,65.414 C53.676,65.414 54.124,66.268 54.166,66.912 L54.166,66.912 Z" id="e" fill="#EA544C"></path>
            <path d="M66.178,70.93 L66.178,66.044 C66.178,64.658 65.436,64 64.19,64 C63.154,64 62.258,64.616 61.866,65.232 C61.614,64.462 60.984,64 59.99,64 C58.954,64 58.058,64.644 57.778,65.05 L57.778,64.168 L56,64.168 L56,70.93 L57.778,70.93 L57.778,66.38 C58.044,66.002 58.562,65.582 59.178,65.582 C59.906,65.582 60.186,66.03 60.186,66.66 L60.186,70.93 L61.978,70.93 L61.978,66.366 C62.23,66.002 62.748,65.582 63.378,65.582 C64.106,65.582 64.386,66.03 64.386,66.66 L64.386,70.93 L66.178,70.93 Z" id="m" fill="#EA544C"></path>
            <path d="M69.57,71.098 C71.81,71.098 73.154,69.474 73.154,67.542 C73.154,65.624 71.81,64 69.57,64 C67.344,64 66,65.624 66,67.542 C66,69.474 67.344,71.098 69.57,71.098 L69.57,71.098 Z M69.57,69.516 C68.464,69.516 67.848,68.606 67.848,67.542 C67.848,66.492 68.464,65.582 69.57,65.582 C70.676,65.582 71.306,66.492 71.306,67.542 C71.306,68.606 70.676,69.516 69.57,69.516 L69.57,69.516 Z" id="o" fill="#EA544C"></path>
            <path d="M44.682,70.838 C47.608,70.838 49.638,68.99 49.638,66.176 C49.638,63.362 47.608,61.5 44.682,61.5 L41,61.5 L41,70.838 L44.682,70.838 Z M44.682,69.088 L42.988,69.088 L42.988,63.25 L44.682,63.25 C46.6,63.25 47.608,64.524 47.608,66.176 C47.608,67.758 46.53,69.088 44.682,69.088 L44.682,69.088 Z" id="D" fill="#EA544C"></path>
            <path d="M25.612,71.098 C26.662,71.098 27.726,70.776 28.398,70.16 L27.614,69.012 C27.18,69.432 26.382,69.684 25.808,69.684 C24.66,69.684 23.974,68.97 23.862,68.116 L28.888,68.116 L28.888,67.724 C28.888,65.512 27.516,64 25.5,64 C23.442,64 22,65.582 22,67.542 C22,69.712 23.554,71.098 25.612,71.098 L25.612,71.098 Z M27.166,66.912 L23.834,66.912 C23.918,66.24 24.394,65.414 25.5,65.414 C26.676,65.414 27.124,66.268 27.166,66.912 L27.166,66.912 Z" id="e" fill="#EA544C"></path>
            <path d="M35.342,70.93 L35.342,66.156 C35.342,64.84 34.628,64 33.144,64 C32.038,64 31.212,64.532 30.778,65.05 L30.778,64.168 L29,64.168 L29,70.93 L30.778,70.93 L30.778,66.38 C31.072,65.974 31.618,65.582 32.318,65.582 C33.074,65.582 33.564,65.904 33.564,66.842 L33.564,70.93 L35.342,70.93 Z" id="n" fill="#EA544C"></path>
            <path d="M19.864,71.098 C21.6,71.098 22.86,69.796 22.86,67.542 C22.86,65.288 21.6,64 19.864,64 C19.038,64 18.296,64.364 17.778,65.022 L17.778,64.168 L16,64.168 L16,73.506 L17.778,73.506 L17.778,70.062 C18.324,70.762 19.066,71.098 19.864,71.098 L19.864,71.098 Z M19.304,69.516 C18.73,69.516 18.072,69.166 17.778,68.746 L17.778,66.352 C18.072,65.918 18.73,65.582 19.304,65.582 C20.326,65.582 21.012,66.38 21.012,67.542 C21.012,68.718 20.326,69.516 19.304,69.516 L19.304,69.516 Z" id="p" fill="#EA544C"></path>
            <text id="O" font-family="ProximaNova-Bold, Proxima Nova" font-size="14" font-weight="bold" letter-spacing="-1.08577776" fill="#EA544C">
                <tspan x="6" y="71">O</tspan>
            </text>
        </g>
    </g>
</svg>