<?xml version="1.0" encoding="utf-8"?>
<!-- Generator: Adobe Illustrator 16.0.0, SVG Export Plug-In . SVG Version: 6.00 Build 0)  -->
<!DOCTYPE svg PUBLIC "-//W3C//DTD SVG 1.1//EN" "http://www.w3.org/Graphics/SVG/1.1/DTD/svg11.dtd">
<svg version="1.1" id="Calque_1" xmlns="http://www.w3.org/2000/svg" xmlns:xlink="http://www.w3.org/1999/xlink" x="0px" y="0px"
	 width="2000px" height="2000px" viewBox="0 0 2000 2000" enable-background="new 0 0 2000 2000" xml:space="preserve">
<g>
	<g>
		<path fill="#FFFFFF" d="M787.685,787.702c141.795,0,283.59,0,425.446,0c0,141.75,0,283.517,0,425.386
			c-141.775,0-283.611,0-425.446,0C787.685,1071.332,787.685,929.525,787.685,787.702z M1084.872,910.442
			c3.126,11.249,4.248,21.361,0.718,31.424c-2.055,5.86-1.353,10.618,2.836,15.401c6.887,7.863,11.861,16.988,12.571,27.553
			c0.616,9.17,0.545,18.47-0.221,27.629c-0.99,11.86-4.935,22.985-11.875,32.749c-8.323,11.709-20.557,17.954-33.801,22.031
			c-7.676,2.363-15.803,3.285-23.749,4.733c-4.164,0.759-7.158,2.756-8.528,6.889c-1.471,4.439,0.071,8.032,3.15,11.161
			c3.907,3.97,6.109,8.834,6.962,14.212c0.604,3.812,0.734,7.728,0.755,11.6c0.081,15.3-0.058,30.603,0.066,45.903
			c0.111,13.715,10.786,22.266,23.927,18.477c8.707-2.512,17.241-5.991,25.4-9.966c20.833-10.147,38.972-23.993,54.379-41.38
			c15.345-17.316,27.76-36.416,35.885-58.174c7.072-18.94,10.994-38.482,11.914-58.711c1.26-27.721-3.57-54.379-14.306-79.797
			c-13.573-32.134-34.634-58.533-63.202-78.786c-38.951-27.615-82.374-38.229-129.542-33.079
			c-27.416,2.994-53.003,11.967-76.484,26.779c-26.411,16.66-47.527,38.393-62.812,65.536
			c-22.22,39.457-29.023,81.645-20.931,126.21c3.198,17.61,8.647,34.508,17.042,50.319c10.786,20.313,24.549,38.381,41.729,53.8
			c18.603,16.694,39.741,29.024,63.442,36.823c14.556,4.79,26.233-3.387,26.438-18.259c0.14-10.16-0.02-20.326-0.217-30.486
			c-0.148-7.621-5.447-12.149-12.898-10.792c-9.922,1.809-19.794,1.45-29.609-0.28c-5.12-0.902-9.565-3.492-13.159-7.483
			c4.55,1.996,8.755,4.375,13.268,5.721c12.777,3.81,25.06,1.02,36.991-3.839c2.934-1.194,4.908-3.6,5.471-6.956
			c1.19-7.105,3.969-13.351,8.781-18.938c5.342-6.202,2.17-14.474-5.762-16.284c-1.329-0.303-2.693-0.455-4.022-0.76
			c-8.744-2.008-17.746-3.282-26.17-6.215c-18.45-6.424-31.012-18.92-36.768-38.033c-3.543-11.764-4.319-23.702-4.087-35.838
			c0.251-13.118,4.984-24.504,13.475-34.289c3.86-4.448,4.936-9.021,2.896-14.465c-3.455-9.223-2.693-18.562-0.841-27.974
			c0.624-3.171,1.984-3.448,4.758-2.456c10.671,3.815,20.91,8.464,30.358,14.775c3.382,2.26,6.915,2.728,11.044,1.946
			c10.06-1.904,20.168-3.95,30.35-4.716c16.807-1.265,33.512,0.347,49.853,4.715c3.852,1.03,7.174,0.21,10.438-1.707
			c4.718-2.77,9.297-5.829,14.207-8.205C1071.298,915.909,1077.871,913.409,1084.872,910.442z"/>
		<path fill-rule="evenodd" clip-rule="evenodd" d="M1084.872,910.442c-7.001,2.967-13.574,5.467-19.88,8.519
			c-4.91,2.376-9.489,5.435-14.207,8.205c-3.264,1.917-6.586,2.736-10.438,1.707c-16.341-4.368-33.046-5.979-49.853-4.715
			c-10.181,0.766-20.29,2.812-30.35,4.716c-4.13,0.781-7.662,0.313-11.044-1.946c-9.448-6.311-19.687-10.96-30.358-14.775
			c-2.773-0.992-4.134-0.716-4.758,2.456c-1.852,9.412-2.613,18.75,0.841,27.974c2.04,5.445,0.964,10.017-2.896,14.465
			c-8.491,9.785-13.224,21.171-13.475,34.289c-0.232,12.136,0.543,24.074,4.087,35.838c5.756,19.113,18.318,31.609,36.768,38.033
			c8.424,2.933,17.426,4.207,26.17,6.215c1.329,0.305,2.693,0.457,4.022,0.76c7.932,1.811,11.104,10.082,5.762,16.284
			c-4.812,5.588-7.591,11.833-8.781,18.938c-0.562,3.356-2.537,5.762-5.471,6.956c-11.931,4.858-24.214,7.648-36.991,3.839
			c-4.513-1.346-8.717-3.725-13.268-5.721c3.594,3.991,8.04,6.581,13.159,7.483c9.815,1.73,19.687,2.089,29.609,0.28
			c7.451-1.357,12.75,3.171,12.898,10.792c0.197,10.16,0.357,20.326,0.217,30.486c-0.205,14.872-11.882,23.049-26.438,18.259
			c-23.702-7.799-44.839-20.129-63.442-36.823c-17.18-15.419-30.944-33.486-41.729-53.8c-8.396-15.812-13.845-32.709-17.042-50.319
			c-8.093-44.565-1.29-86.753,20.931-126.21c15.285-27.143,36.401-48.875,62.812-65.536c23.481-14.812,49.069-23.786,76.484-26.779
			c47.167-5.15,90.59,5.464,129.542,33.079c28.568,20.252,49.629,46.651,63.202,78.786c10.735,25.418,15.565,52.076,14.306,79.797
			c-0.92,20.229-4.842,39.771-11.914,58.711c-8.125,21.758-20.54,40.857-35.885,58.174c-15.407,17.387-33.546,31.232-54.379,41.38
			c-8.159,3.975-16.693,7.454-25.4,9.966c-13.141,3.789-23.815-4.762-23.927-18.477c-0.124-15.301,0.015-30.604-0.066-45.903
			c-0.021-3.872-0.15-7.787-0.755-11.6c-0.853-5.378-3.055-10.242-6.962-14.212c-3.079-3.129-4.621-6.722-3.15-11.161
			c1.37-4.133,4.364-6.13,8.528-6.889c7.946-1.448,16.073-2.37,23.749-4.733c13.244-4.077,25.478-10.322,33.801-22.031
			c6.94-9.764,10.885-20.889,11.875-32.749c0.766-9.159,0.837-18.458,0.221-27.629c-0.71-10.565-5.685-19.689-12.571-27.553
			c-4.188-4.783-4.891-9.541-2.836-15.401C1089.12,931.803,1087.998,921.69,1084.872,910.442z M965.963,1082.45
			c-12.958-1.638-24.857-4.038-36.098-9.171c-16.135-7.37-28.297-18.533-34.931-35.283c-4.196-10.593-6.453-21.564-7.352-32.907
			c-1.643-20.734,2.352-39.716,16.372-55.838c0.585-0.673,0.816-2.158,0.516-3.023c-4.578-13.189-3.544-26.279,0.499-39.336
			c2.034-6.57,4.092-7.777,10.94-6.531c0.336,0.061,0.659,0.191,0.993,0.263c10.588,2.275,20.665,6.256,29.615,12.078
			c6.942,4.515,13.023,5.26,21.115,3.501c24.526-5.332,49.164-4.457,73.572,1.707c1.424,0.359,3.321-0.064,4.686-0.747
			c8.551-4.277,16.801-9.232,25.581-12.943c5.431-2.295,11.594-2.976,17.5-3.939c1.325-0.216,3.831,1.062,4.306,2.248
			c5.576,13.915,7.551,28.156,2.641,42.732c-0.665,1.977-0.446,3.278,0.936,4.875c7.072,8.168,11.896,17.556,14.129,28.134
			c3.89,18.433,1.952,36.537-3.73,54.317c-3.53,11.049-9.097,20.912-18.034,28.566c-10.244,8.773-22.099,14.47-35.125,17.669
			c-6.351,1.56-12.836,2.574-19.515,3.885c1.363,1.93,2.708,3.613,3.818,5.44c4.846,7.969,6.209,16.795,6.212,25.935
			c0.005,15.758-0.038,31.515,0.034,47.272c0.033,7.099,4.77,10.723,11.396,8.215c8.725-3.303,17.436-6.797,25.742-11.016
			c18.929-9.615,35.2-22.787,49.122-38.799c16.44-18.909,28.868-40.128,36.185-64.188c5.829-19.172,7.945-38.802,7.198-58.804
			c-0.652-17.462-3.746-34.442-9.667-50.871c-8.509-23.611-21.45-44.503-38.882-62.593c-17.766-18.435-38.593-32.31-62.408-41.643
			c-29.493-11.558-59.974-14.207-91.158-9.498c-33.544,5.066-62.932,19.369-88.049,41.847c-29.751,26.624-48.692,59.7-55.718,99.244
			c-4.328,24.36-3.774,48.698,2.103,72.695c9.262,37.815,29.637,68.816,59.374,93.745c15.915,13.342,33.947,22.961,53.531,29.728
			c7.688,2.657,12.736-1.455,12.35-8.872c-0.409-7.859-0.142-15.753-0.167-23.632c-0.006-1.894-0.001-3.787-0.001-5.534
			c-5.758,0.344-10.983,0.969-16.198,0.883c-5.339-0.088-10.722-0.544-15.989-1.419c-10.773-1.791-19.486-6.963-24.853-16.819
			c-1.466-2.693-2.435-5.652-3.783-8.415c-4.243-8.69-9.1-16.829-17.916-21.874c-2.175-1.244-3.965-3.445-5.445-5.55
			c-2.035-2.896-1.143-5.405,2.305-5.721c3.884-0.356,8.083-0.387,11.76,0.722c9.42,2.84,16.362,9.07,21.678,17.366
			c2.558,3.992,5.573,7.826,8.975,11.118c11.105,10.744,28.131,7.673,38.68,3.427c0.622-0.25,1.352-1.006,1.465-1.63
			C957.655,1095.842,960.375,1088.821,965.963,1082.45z"/>
		<path fill-rule="evenodd" clip-rule="evenodd" fill="#FFFFFF" d="M965.963,1082.45c-5.587,6.371-8.308,13.392-9.691,21.017
			c-0.113,0.624-0.843,1.38-1.465,1.63c-10.549,4.246-27.575,7.317-38.68-3.427c-3.402-3.292-6.417-7.126-8.975-11.118
			c-5.316-8.296-12.258-14.526-21.678-17.366c-3.676-1.108-7.876-1.078-11.76-0.722c-3.448,0.315-4.34,2.825-2.305,5.721
			c1.479,2.104,3.27,4.306,5.445,5.55c8.816,5.045,13.673,13.184,17.916,21.874c1.349,2.763,2.317,5.722,3.783,8.415
			c5.367,9.856,14.08,15.028,24.853,16.819c5.267,0.875,10.65,1.331,15.989,1.419c5.214,0.086,10.44-0.539,16.198-0.883
			c0,1.747-0.005,3.641,0.001,5.534c0.025,7.879-0.242,15.772,0.167,23.632c0.386,7.417-4.663,11.529-12.35,8.872
			c-19.584-6.767-37.616-16.386-53.531-29.728c-29.737-24.929-50.112-55.93-59.374-93.745c-5.877-23.997-6.431-48.335-2.103-72.695
			c7.025-39.544,25.967-72.621,55.718-99.244c25.117-22.478,54.504-36.78,88.049-41.847c31.185-4.709,61.665-2.06,91.158,9.498
			c23.815,9.333,44.643,23.208,62.408,41.643c17.432,18.09,30.373,38.981,38.882,62.593c5.921,16.428,9.015,33.408,9.667,50.871
			c0.747,20.002-1.369,39.632-7.198,58.804c-7.316,24.06-19.744,45.278-36.185,64.188c-13.922,16.012-30.193,29.184-49.122,38.799
			c-8.307,4.219-17.018,7.713-25.742,11.016c-6.627,2.508-11.363-1.116-11.396-8.215c-0.072-15.758-0.029-31.515-0.034-47.272
			c-0.003-9.14-1.366-17.966-6.212-25.935c-1.11-1.827-2.455-3.511-3.818-5.44c6.679-1.311,13.164-2.325,19.515-3.885
			c13.026-3.199,24.881-8.896,35.125-17.669c8.938-7.654,14.504-17.518,18.034-28.566c5.683-17.78,7.62-35.885,3.73-54.317
			c-2.232-10.578-7.057-19.966-14.129-28.134c-1.382-1.597-1.601-2.899-0.936-4.875c4.91-14.576,2.936-28.817-2.641-42.732
			c-0.475-1.186-2.98-2.464-4.306-2.248c-5.906,0.964-12.069,1.645-17.5,3.939c-8.78,3.711-17.03,8.667-25.581,12.943
			c-1.364,0.683-3.262,1.106-4.686,0.747c-24.408-6.164-49.046-7.038-73.572-1.707c-8.091,1.759-14.173,1.014-21.115-3.501
			c-8.95-5.821-19.027-9.803-29.615-12.078c-0.334-0.072-0.657-0.202-0.993-0.263c-6.848-1.246-8.906-0.039-10.94,6.531
			c-4.043,13.057-5.076,26.147-0.499,39.336c0.3,0.865,0.07,2.35-0.516,3.023c-14.02,16.122-18.014,35.104-16.372,55.838
			c0.899,11.343,3.156,22.314,7.352,32.907c6.634,16.75,18.795,27.913,34.931,35.283
			C941.105,1078.412,953.005,1080.812,965.963,1082.45z"/>
	</g>
</g>
</svg>
