<?xml version="1.0" encoding="UTF-8" standalone="no"?>
<svg width="147px" height="104px" viewBox="0 0 832 353" version="1.1" xmlns="http://www.w3.org/2000/svg" xmlns:xlink="http://www.w3.org/1999/xlink">
    <title>logo-ODN</title>
    <defs></defs>
    <g id="Page-1" stroke="none" stroke-width="1" fill="none" fill-rule="evenodd">
        <g id="versions-2" transform="translate(-1364.000000, -2257.000000)">
            <g id="logo3" transform="translate(1347.000000, 2134.000000)">
                <text id="N" font-family="ProximaNova-Bold, Proxima Nova" font-size="510" font-weight="bold" fill="#4896ED">
                    <tspan x="510" y="475">N</tspan>
                </text>
                <text id="D" font-family="ProximaNova-Bold, Proxima Nova" font-size="510" font-weight="bold" fill="#4896ED">
                    <tspan x="267" y="475">D</tspan>
                </text>
                <text id="O" font-family="ProximaNova-Bold, Proxima Nova" font-size="510" font-weight="bold" fill="#4896ED">
                    <tspan x="0" y="469">O</tspan>
                </text>
                <path d="M551.917997,170.395683 C546.480495,166.316111 543.674561,164.802673 543.674561,164.802673 L543.670471,190.912476 C543.670471,190.912476 598.195578,235.992723 601.006481,311.38475 C602.001617,338.075583 598.420216,368.427748 580.998791,402.115021 C576.050097,411.684157 568.108952,421.904151 561.190247,431.966675 C561.190247,431.966675 588.84915,409.281762 603.551315,372.117783 C613.339802,347.374548 614.5246,321.702259 615.04422,296.799408 C615.81306,259.95263 600.016023,226.093766 584.673359,204.013775 C573.9023,188.51289 562.780331,179.146447 560.247759,177.208574 C556.55117,174.380017 554.270664,172.160809 551.917997,170.395683 Z" id="Path-62" fill="#3167A4"></path>
                <path d="M300.730347,181.46167 C300.730347,181.46167 347.712439,212.93455 357.258106,295.171041 C366.803772,377.407532 316.998524,430.709079 316.998524,430.709079 C316.998524,430.709079 327.073872,422.896867 338.914442,406.742099 C346.298498,396.667609 354.67781,383.388135 360.781359,366.614475 C362.41794,362.116852 365.483938,353.973043 368.030489,342.599201 C369.733263,334.99398 371.176378,325.378992 372.04233,316.072605 C374.057072,294.420173 370.965016,269.229619 368.675264,258.214107 C360.890904,220.765186 341.552189,192.70612 325.062637,175.452211 C311.844053,161.620892 300.73325,154.826405 300.730347,154.816101 C300.721613,154.785107 300.730347,181.46167 300.730347,181.46167 Z" id="Path-61" fill="#3167A4"></path>
                <path d="M300.86972,181.550825 C300.86972,181.550825 347.721513,212.339677 357.393418,294.79569 C357.66979,297.15185 357.789633,299.548283 358.003541,301.989307 C363.675952,366.720438 336.798728,409.674853 317.287007,430.315845 C310.313243,437.693227 303.901685,441.746686 300.665234,443.584842 L300.86972,187.223785 L300.86972,181.550825 Z" id="Path-62" fill="#3B79BE"></path>
                <path d="M543.956763,191.198666 C543.956763,191.198666 596.360355,231.14831 601.003929,309.842633 C604.657139,371.753321 581.632398,411.567177 560.565918,432.585568 C554.854915,438.283534 548.475796,442.105149 543.684204,445.208004 L544.192998,232.193701 L543.956763,191.198666 Z" id="Path-63" fill="#3B79BE"></path>
            </g>
        </g>
    </g>
</svg>