<?xml version="1.0" encoding="UTF-8" standalone="no"?>
<svg width="280px" height="231px" viewBox="0 0 280 231" version="1.1" xmlns="http://www.w3.org/2000/svg" xmlns:xlink="http://www.w3.org/1999/xlink">
    <!-- Generator: Sketch 3.8.3 (29802) - http://www.bohemiancoding.com/sketch -->
    <title>twitter (1)</title>
    <desc>Created with Sketch.</desc>
    <defs></defs>
    <g id="Page-1" stroke="none" stroke-width="1" fill="none" fill-rule="evenodd">
        <g id="twitter-(1)" fill="#000000">
            <g id="Capa_1">
                <path d="M277.458101,26.9960247 C275.587912,25.7309711 273.110177,25.7994948 271.303384,27.1594275 C268.931309,28.9515868 265.074705,30.3747722 260.922252,31.471152 C271.736592,19.3793475 271.969044,11.3040883 271.852818,9.44867626 C271.731309,7.53001154 270.574327,5.82746016 268.830931,5.01044634 C267.082252,4.18816146 265.032441,4.38846163 263.47395,5.5164678 C251.307158,14.3402171 239.187912,16.2009002 231.981875,16.3906582 C220.919233,5.82746016 206.554705,0.0398396748 191.265648,0.0398396748 C158.532063,0.0398396748 131.905648,26.9643984 131.905648,60.0560937 C131.905648,62.9024644 132.106403,65.7435641 132.502629,68.5583085 C75.7735727,67.9205106 29.7056482,13.686606 29.2301765,13.1226029 C28.1207425,11.8048387 26.4407425,11.0985171 24.7184784,11.2513777 C22.9962142,11.3989673 21.4588558,12.3741128 20.5977237,13.871093 C4.27319537,42.123958 15.1984784,66.940094 25.1833841,81.1508634 C23.4188558,80.2126153 21.9871576,79.2849093 21.1313086,78.6576535 C19.5464029,77.4769367 17.4279124,77.2819076 15.642252,78.1569031 C13.8618746,79.0318985 12.7260256,80.8240579 12.6890444,82.8007042 C12.2505539,109.725263 25.2362142,125.148375 37.4505539,133.676946 C35.8233841,133.524085 34.1697991,134.124985 33.0392331,135.353142 C31.7713086,136.728887 31.322252,138.673907 31.8716859,140.460796 C40.3086671,168.01261 61.0233841,177.374007 74.2045161,180.552455 C47.1026293,201.605056 7.21583688,194.826477 6.77734632,194.752682 C4.36828971,194.325726 1.99093122,195.59078 1.00828971,197.820437 C0.0309312234,200.044823 0.696591601,202.653996 2.64074254,204.129892 C31.2482897,225.91517 65.4664029,230.738187 90.1803652,230.738187 C108.876969,230.738187 122.142629,227.976154 123.410554,227.696788 C248.607535,198.094532 252.131309,83.6756997 251.840743,64.9265502 C275.344893,43.1201878 279.016592,34.8130021 279.581875,32.7572899 C280.189422,30.5803434 279.333573,28.2610784 277.458101,26.9960247 L277.458101,26.9960247 Z M242.917724,58.8068532 C241.73961,59.8874198 241.121497,61.4423816 241.227158,63.0395119 C241.559988,68.0997265 247.963007,187.420642 121.080743,217.418227 C120.504893,217.539461 70.0679124,228.039406 26.3456482,206.428073 C44.8203652,205.91678 71.3094218,201.088492 89.7630067,180.415407 C91.1577237,178.860445 91.4958369,176.625517 90.6294218,174.727937 C89.7735727,172.846169 87.887535,171.639097 85.8218746,171.639097 L85.7690444,171.639097 C85.5048935,171.807771 57.7637614,171.607471 45.0633841,145.278542 C50.1773463,145.56845 56.4852708,145.252187 61.5094218,142.943464 C63.5803652,141.989402 64.8007425,139.822998 64.5471576,137.561714 C64.2935727,135.305702 62.6135727,133.466103 60.3841388,132.996979 C58.9630067,132.696529 28.0784784,125.807258 23.756969,92.1937276 C28.4430067,94.2388977 34.4392331,95.9098228 40.3667803,95.008472 C42.4060256,94.7027507 44.0754595,93.242668 44.6513086,91.2660216 C45.2271576,89.2893753 44.5984784,87.1598683 43.0399878,85.8104777 C41.7192331,84.6613873 12.7154595,58.9439007 26.4671576,25.7731395 C41.396969,41.4018233 85.6158369,82.0153167 139.190931,78.9475616 C140.759988,78.8579537 142.212818,78.0672951 143.147912,76.8022415 C144.077724,75.5371878 144.394705,73.9242444 144.014327,72.4009089 C142.999988,68.3685504 142.482252,64.2149576 142.482252,60.0613647 C142.482252,32.7783741 164.375082,10.5872246 191.281497,10.5872246 C204.441497,10.5872246 216.787912,15.8266551 226.038478,25.3461839 C227.010554,26.3476847 228.347158,26.9222299 229.741875,26.9485852 C235.341875,27.0276511 244.544893,26.3687689 254.941875,22.209905 C251.94112,25.9365423 247.535082,30.4011275 241.052818,35.4824263 C239.21961,36.9214249 238.548667,39.3830085 239.399233,41.5494128 C240.249799,43.7210883 242.447535,45.086292 244.740365,44.8807208 C245.971309,44.7805707 252.247535,44.2323808 259.342629,42.6985033 C255.464893,46.8520961 250.166026,52.1547793 242.917724,58.8068532 L242.917724,58.8068532 Z" id="Shape"></path>
            </g>
        </g>
    </g>
</svg>